# xmcd
#
# Track frame offsets:
#	150
#	11967
#	27620
#	39051
#	55588
#	70306
#	83822
#	99231
#	114724
#	133077
#	147812
#	167814
#	178677
#
# Disc length: 2658 seconds
#
# Revision: 1
# Processed by: cddbd v1.5.2PL0 Copyright (c) Steve Scherf et al.
# Submitted via: EasyCDDAExtractor 7.0.3.1
#
DISCID=ad0a600d
DTITLE=Ciara Lynn - Baby It's Me
DYEAR=1900
DGENRE=Country
TTITLE0=Givin' Up Gettin' Over You
TTITLE1=Baby It's Me
TTITLE2=Leavin'
TTITLE3=Kiss It Away
TTITLE4=Everything Love Means To Me
TTITLE5=Whatcha Mean
TTITLE6=Look Around
TTITLE7=Make Me Believe
TTITLE8=Rain On Me
TTITLE9=Something Better Than This
TTITLE10=I Try
TTITLE11=That's Not Me
TTITLE12=Over You
EXTD=
EXTT0=
EXTT1=
EXTT2=
EXTT3=
EXTT4=
EXTT5=
EXTT6=
EXTT7=
EXTT8=
EXTT9=
EXTT10=
EXTT11=
EXTT12=
PLAYORDER=
